HIERARCHY
ROOT Hip
{
	OFFSET	0.0000	0.0000	0.0000
	CHANNELS 6 Xposition Yposition Zposition Xrotation Yrotation Zrotation
	JOINT LowerSpine
	{
		OFFSET	0.0000	10.3005	-5.5740
		CHANNELS 3 Xrotation Yrotation Zrotation
		JOINT MiddleSpine
		{
			OFFSET	0.0000	9.4000	0.4911
			CHANNELS 3 Xrotation Yrotation Zrotation
			JOINT Chest
			{
				OFFSET	0.0000	11.6313	-2.5890
				CHANNELS 3 Xrotation Yrotation Zrotation
				JOINT Neck
				{
					OFFSET	0.0000	26.2109	-0.5451
					CHANNELS 3 Xrotation Yrotation Zrotation
					JOINT Head
					{
						OFFSET	-0.0001	14.8016	4.0260
						CHANNELS 3 Xrotation Yrotation Zrotation
						End Site
						{
							OFFSET	0.0001	20.6815	0.6174
						}
					}
				}
				JOINT LClavicle
				{
					OFFSET	2.6462	25.2948	8.6662
					CHANNELS 3 Xrotation Yrotation Zrotation
					JOINT LShoulder
					{
						OFFSET	15.4595	3.6282	-5.8708
						CHANNELS 3 Xrotation Yrotation Zrotation
						JOINT LForearm
						{
							OFFSET	32.8390	-0.1164	-0.2846
							CHANNELS 3 Xrotation Yrotation Zrotation
							JOINT LHand
							{
								OFFSET	27.3947	0.0795	-0.1641
								CHANNELS 3 Xrotation Yrotation Zrotation
								JOINT LFinger1
								{
									OFFSET	10.6174	0.9286	2.9490
									CHANNELS 3 Xrotation Yrotation Zrotation
									JOINT LFinger11
									{
										OFFSET	3.9715	-0.9684	0.6998
										CHANNELS 3 Xrotation Yrotation Zrotation
										JOINT LFinger12
										{
											OFFSET	2.7112	-0.6613	0.4779
											CHANNELS 3 Xrotation Yrotation Zrotation
											End Site
											{
												OFFSET	1.9293	-0.5759	0.3129
											}
										}
									}
								}
								JOINT LFinger2
								{
									OFFSET	10.7758	1.0723	0.2567
									CHANNELS 3 Xrotation Yrotation Zrotation
									JOINT LFinger21
									{
										OFFSET	4.9105	0.0137	-0.0290
										CHANNELS 3 Xrotation Yrotation Zrotation
										JOINT LFinger22
										{
											OFFSET	2.7219	0.0084	-0.0166
											CHANNELS 3 Xrotation Yrotation Zrotation
											End Site
											{
												OFFSET	2.4447	-0.1726	0.0033
											}
										}
									}
								}
								JOINT LFinger3
								{
									OFFSET	10.2124	0.7156	-2.4161
									CHANNELS 3 Xrotation Yrotation Zrotation
									JOINT LFinger31
									{
										OFFSET	4.4557	-0.2256	-0.2790
										CHANNELS 3 Xrotation Yrotation Zrotation
										JOINT LFinger32
										{
											OFFSET	2.5391	-0.1278	-0.1595
											CHANNELS 3 Xrotation Yrotation Zrotation
											End Site
											{
												OFFSET	2.2450	-0.2760	-0.1061
											}
										}
									}
								}
								JOINT LFinger4
								{
									OFFSET	9.4767	-0.7201	-4.1725
									CHANNELS 3 Xrotation Yrotation Zrotation
									JOINT LFinger41
									{
										OFFSET	2.7407	-0.5715	-0.7566
										CHANNELS 3 Xrotation Yrotation Zrotation
										JOINT LFinger42
										{
											OFFSET	2.0098	-0.4185	-0.5552
											CHANNELS 3 Xrotation Yrotation Zrotation
											End Site
											{
												OFFSET	1.7838	-0.4901	-0.4093
											}
										}
									}
								}
								JOINT LFinger0
								{
									OFFSET	2.1964	-1.6624	1.6651
									CHANNELS 3 Xrotation Yrotation Zrotation
									JOINT LFinger01
									{
										OFFSET	4.0893	-1.3429	3.0830
										CHANNELS 3 Xrotation Yrotation Zrotation
										JOINT LFinger02
										{
											OFFSET	2.6927	-0.9636	1.9400
											CHANNELS 3 Xrotation Yrotation Zrotation
											End Site
											{
												OFFSET	1.9801	-0.6816	1.3559
											}
										}
									}
								}
							}
						}
					}
				}
				JOINT RClavicle
				{
					OFFSET	-2.6462	25.2948	8.6661
					CHANNELS 3 Xrotation Yrotation Zrotation
					JOINT RShoulder
					{
						OFFSET	-15.4622	3.6288	-5.8718
						CHANNELS 3 Xrotation Yrotation Zrotation
						JOINT RForearm
						{
							OFFSET	-32.8390	-0.1164	-0.2846
							CHANNELS 3 Xrotation Yrotation Zrotation
							JOINT RHand
							{
								OFFSET	-27.3947	0.0795	-0.1641
								CHANNELS 3 Xrotation Yrotation Zrotation
								JOINT RFinger1
								{
									OFFSET	-10.6175	0.9287	2.9490
									CHANNELS 3 Xrotation Yrotation Zrotation
									JOINT RFinger11
									{
										OFFSET	-3.9715	-0.9684	0.6998
										CHANNELS 3 Xrotation Yrotation Zrotation
										JOINT RFinger12
										{
											OFFSET	-2.7112	-0.6614	0.4779
											CHANNELS 3 Xrotation Yrotation Zrotation
											End Site
											{
												OFFSET	-1.9293	-0.5759	0.3129
											}
										}
									}
								}
								JOINT RFinger2
								{
									OFFSET	-10.7758	1.0724	0.2568
									CHANNELS 3 Xrotation Yrotation Zrotation
									JOINT RFinger21
									{
										OFFSET	-4.9105	0.0137	-0.0290
										CHANNELS 3 Xrotation Yrotation Zrotation
										JOINT RFinger22
										{
											OFFSET	-2.7219	0.0083	-0.0167
											CHANNELS 3 Xrotation Yrotation Zrotation
											End Site
											{
												OFFSET	-2.4447	-0.1726	0.0033
											}
										}
									}
								}
								JOINT RFinger3
								{
									OFFSET	-10.2124	0.7157	-2.4161
									CHANNELS 3 Xrotation Yrotation Zrotation
									JOINT RFinger31
									{
										OFFSET	-4.4557	-0.2256	-0.2790
										CHANNELS 3 Xrotation Yrotation Zrotation
										JOINT RFinger32
										{
											OFFSET	-2.5391	-0.1277	-0.1595
											CHANNELS 3 Xrotation Yrotation Zrotation
											End Site
											{
												OFFSET	-2.2450	-0.2760	-0.1061
											}
										}
									}
								}
								JOINT RFinger4
								{
									OFFSET	-9.4767	-0.7201	-4.1725
									CHANNELS 3 Xrotation Yrotation Zrotation
									JOINT RFinger41
									{
										OFFSET	-2.7407	-0.5715	-0.7566
										CHANNELS 3 Xrotation Yrotation Zrotation
										JOINT RFinger42
										{
											OFFSET	-2.0097	-0.4184	-0.5552
											CHANNELS 3 Xrotation Yrotation Zrotation
											End Site
											{
												OFFSET	-1.7838	-0.4901	-0.4092
											}
										}
									}
								}
								JOINT RFinger0
								{
									OFFSET	-2.1964	-1.6623	1.6649
									CHANNELS 3 Xrotation Yrotation Zrotation
									JOINT RFinger01
									{
										OFFSET	-4.0892	-1.3431	3.0832
										CHANNELS 3 Xrotation Yrotation Zrotation
										JOINT RFinger02
										{
											OFFSET	-2.6927	-0.9634	1.9400
											CHANNELS 3 Xrotation Yrotation Zrotation
											End Site
											{
												OFFSET	-1.9801	-0.6816	1.3559
											}
										}
									}
								}
							}
						}
					}
				}
			}
		}
	}
	JOINT RThigh
	{
		OFFSET	-11.0190	4.6561	-0.9082
		CHANNELS 3 Xrotation Yrotation Zrotation
		JOINT RShin
		{
			OFFSET	-0.8817	-47.9274	0.0000
			CHANNELS 3 Xrotation Yrotation Zrotation
			JOINT RFoot
			{
				OFFSET	0.0000	-47.0618	0.0000
				CHANNELS 3 Xrotation Yrotation Zrotation
				JOINT RToe
				{
					OFFSET	0.0000	-5.1725	10.8164
					CHANNELS 3 Xrotation Yrotation Zrotation
					End Site
					{
						OFFSET	0.0000	0.0000	7.2563
					}
				}
			}
		}
	}
	JOINT LThigh
	{
		OFFSET	11.0188	4.6564	-0.9083
		CHANNELS 3 Xrotation Yrotation Zrotation
		JOINT LShin
		{
			OFFSET	0.8818	-47.9278	0.0000
			CHANNELS 3 Xrotation Yrotation Zrotation
			JOINT LFoot
			{
				OFFSET	0.0000	-47.0618	0.0000
				CHANNELS 3 Xrotation Yrotation Zrotation
				JOINT LToe
				{
					OFFSET	0.0000	-5.1725	10.8164
					CHANNELS 3 Xrotation Yrotation Zrotation
					End Site
					{
						OFFSET	0.0000	0.0000	7.2563
					}
				}
			}
		}
	}
}
MOTION
Frames:	5
Frame Time: 0.0333333000
	6.0345	97.5296	-96.6900	8.554534	-6.163140	2.824464	0.000000	0.000000	0.000000	-1.453059	0.121694	0.073774	-4.844684	0.396913	0.260193	0.000000	0.000000	0.000000	0.000000	0.000000	0.000000	0.000000	0.000000	-14.246790	24.357780	-45.199560	-44.922950	0.000000	-10.131940	0.000000	0.000000	0.000000	0.000000	0.000000	0.000000	0.000000	0.000000	0.000000	0.000000	0.000000	0.000000	0.000000	0.000000	0.000000	0.000000	0.000000	0.000000	0.000000	0.000000	0.000000	0.000000	0.000000	0.000000	0.000000	0.000000	0.000000	0.000000	0.000000	0.000000	0.000000	0.000000	0.000000	0.000000	0.000000	0.000000	0.000000	0.000000	0.000000	0.000000	0.000000	0.000000	0.000000	0.000000	0.000000	0.000000	0.000000	0.000000	0.000000	0.000000	0.000000	15.228570	2.001417	12.064720	60.131720	0.000000	9.441662	0.000000	0.000000	0.000000	0.000000	0.000000	0.000000	0.000000	0.000000	0.000000	0.000000	0.000000	0.000000	0.000000	0.000000	0.000000	0.000000	0.000000	0.000000	0.000000	0.000000	0.000000	0.000000	0.000000	0.000000	0.000000	0.000000	0.000000	0.000000	0.000000	0.000000	0.000000	0.000000	0.000000	0.000000	0.000000	0.000000	0.000000	0.000000	0.000000	0.000000	0.000000	0.000000	0.000000	0.000000	0.000000	0.000000	0.000000	0.000000	0.000000	-24.390680	4.070951	-2.379156	23.789360	0.000003	0.000003	-3.267264	0.796726	0.398398	0.000000	0.000000	0.000000	-16.561450	1.574540	1.761578	12.402850	0.000001	0.000000	-1.100096	0.471502	0.223301	0.000000	0.000000	0.000000
	8.0559	96.1652	-103.3519	23.700360	-8.689735	7.890824	0.000000	0.000000	0.000000	-4.373433	0.265543	-0.475388	-14.569780	1.023956	-1.493117	0.000000	0.000000	0.000000	0.000000	0.000000	0.000000	0.000000	0.000000	-13.864110	47.469400	-53.547490	-26.949680	0.000000	-19.899220	0.000000	0.000000	0.000000	0.000000	0.000000	0.000000	0.000000	0.000000	0.000000	0.000000	0.000000	0.000000	0.000000	0.000000	0.000000	0.000000	0.000000	0.000000	0.000000	0.000000	0.000000	0.000000	0.000000	0.000000	0.000000	0.000000	0.000000	0.000000	0.000000	0.000000	0.000000	0.000000	0.000000	0.000000	0.000000	0.000000	0.000000	0.000000	0.000000	0.000000	0.000000	0.000000	0.000000	0.000000	0.000000	0.000000	0.000000	0.000000	0.000000	0.000000	0.000000	15.052610	16.439420	35.732820	53.146780	0.000000	14.954020	0.000000	0.000000	0.000000	0.000000	0.000000	0.000000	0.000000	0.000000	0.000000	0.000000	0.000000	0.000000	0.000000	0.000000	0.000000	0.000000	0.000000	0.000000	0.000000	0.000000	0.000000	0.000000	0.000000	0.000000	0.000000	0.000000	0.000000	0.000000	0.000000	0.000000	0.000000	0.000000	0.000000	0.000000	0.000000	0.000000	0.000000	0.000000	0.000000	0.000000	0.000000	0.000000	0.000000	0.000000	0.000000	0.000000	0.000000	0.000000	0.000000	-49.124510	9.265130	-2.526101	34.761640	0.000005	0.000006	-0.989760	0.941463	0.450984	-0.000047	0.000000	0.000000	-39.961150	3.531685	0.433475	24.167520	0.000002	0.000000	-0.774458	0.524266	0.256996	0.000000	0.000000	0.000000
	9.5874	94.7502	-108.1774	34.869840	-9.437468	11.886980	0.000000	0.000000	0.000000	-6.402643	0.374652	-0.795393	-21.321610	1.576039	-2.451736	0.000000	0.000000	0.000000	0.000000	0.000000	0.000000	0.000000	0.000000	-13.523650	65.784540	-55.862870	-10.845860	0.000000	-27.146130	0.000000	0.000000	0.000000	0.000000	0.000000	0.000000	0.000000	0.000000	0.000000	0.000000	0.000000	0.000000	0.000000	0.000000	0.000000	0.000000	0.000000	0.000000	0.000000	0.000000	0.000000	0.000000	0.000000	0.000000	0.000000	0.000000	0.000000	0.000000	0.000000	0.000000	0.000000	0.000000	0.000000	0.000000	0.000000	0.000000	0.000000	0.000000	0.000000	0.000000	0.000000	0.000000	0.000000	0.000000	0.000000	0.000000	0.000000	0.000000	0.000000	0.000000	0.000000	14.881820	30.863690	49.515050	42.488510	0.000000	18.620580	0.000000	0.000000	0.000000	0.000000	0.000000	0.000000	0.000000	0.000000	0.000000	0.000000	0.000000	0.000000	0.000000	0.000000	0.000000	0.000000	0.000000	0.000000	0.000000	0.000000	0.000000	0.000000	0.000000	0.000000	0.000000	0.000000	0.000000	0.000000	0.000000	0.000000	0.000000	0.000000	0.000000	0.000000	0.000000	0.000000	0.000000	0.000000	0.000000	0.000000	0.000000	0.000000	0.000000	0.000000	0.000000	0.000000	0.000000	0.000000	0.000000	-67.633610	12.248430	-1.116317	43.086990	0.000007	0.000007	1.118580	0.701725	0.332896	-0.000047	0.000000	0.000000	-57.833070	5.153235	0.172702	33.738800	0.000003	0.000000	-0.851150	0.069056	0.033024	0.000000	0.000000	0.000000
	10.3022	93.5425	-110.4085	39.569500	-9.351847	13.643800	0.000000	0.000000	0.000000	-6.880819	0.379246	-0.786831	-22.915610	1.607591	-2.406436	0.000000	0.000000	0.000000	0.000000	0.000000	0.000000	0.000000	0.000000	-13.267790	69.249400	-56.141460	-5.999286	0.000000	-30.916900	0.000000	0.000000	0.000000	0.000000	0.000000	0.000000	0.000000	0.000000	0.000000	0.000000	0.000000	0.000000	0.000000	0.000000	0.000000	0.000000	0.000000	0.000000	0.000000	0.000000	0.000000	0.000000	0.000000	0.000000	0.000000	0.000000	0.000000	0.000000	0.000000	0.000000	0.000000	0.000000	0.000000	0.000000	0.000000	0.000000	0.000000	0.000000	0.000000	0.000000	0.000000	0.000000	0.000000	0.000000	0.000000	0.000000	0.000000	0.000000	0.000000	0.000000	0.000000	14.670060	34.292670	52.480800	38.305260	0.000000	18.980000	0.000000	0.000000	0.000000	0.000000	0.000000	0.000000	0.000000	0.000000	0.000000	0.000000	0.000000	0.000000	0.000000	0.000000	0.000000	0.000000	0.000000	0.000000	0.000000	0.000000	0.000000	0.000000	0.000000	0.000000	0.000000	0.000000	0.000000	0.000000	0.000000	0.000000	0.000000	0.000000	0.000000	0.000000	0.000000	0.000000	0.000000	0.000000	0.000000	0.000000	0.000000	0.000000	0.000000	0.000000	0.000000	0.000000	0.000000	0.000000	0.000000	-76.156710	11.642890	-0.573369	47.146020	0.000008	0.000008	1.967603	0.609052	0.275540	-0.000047	0.000000	0.000000	-66.563800	5.982049	0.556873	39.128540	0.000004	0.000000	-1.048013	-0.488899	-0.238931	0.000000	0.000000	0.000000
	10.8634	92.3332	-111.9897	42.318900	-8.790449	14.542690	0.000000	0.000000	0.000000	-6.760405	0.335104	-0.687301	-22.518750	1.412667	-2.103514	0.000000	0.000000	0.000000	0.000000	0.000000	0.000000	0.000000	0.000000	-12.927790	67.127870	-56.385920	-5.008254	0.000000	-33.620700	0.000000	0.000000	0.000000	0.000000	0.000000	0.000000	0.000000	0.000000	0.000000	0.000000	0.000000	0.000000	0.000000	0.000000	0.000000	0.000000	0.000000	0.000000	0.000000	0.000000	0.000000	0.000000	0.000000	0.000000	0.000000	0.000000	0.000000	0.000000	0.000000	0.000000	0.000000	0.000000	0.000000	0.000000	0.000000	0.000000	0.000000	0.000000	0.000000	0.000000	0.000000	0.000000	0.000000	0.000000	0.000000	0.000000	0.000000	0.000000	0.000000	0.000000	0.000000	14.297180	30.425850	51.089820	39.309980	0.000000	19.325130	0.000000	0.000000	0.000000	0.000000	0.000000	0.000000	0.000000	0.000000	0.000000	0.000000	0.000000	0.000000	0.000000	0.000000	0.000000	0.000000	0.000000	0.000000	0.000000	0.000000	0.000000	0.000000	0.000000	0.000000	0.000000	0.000000	0.000000	0.000000	0.000000	0.000000	0.000000	0.000000	0.000000	0.000000	0.000000	0.000000	0.000000	0.000000	0.000000	0.000000	0.000000	0.000000	0.000000	0.000000	0.000000	0.000000	0.000000	0.000000	0.000000	-81.341260	8.882739	-1.064287	48.653110	0.000008	0.000008	1.756039	0.826104	0.382659	-0.000047	0.000000	0.000000	-72.375520	7.059043	0.881422	42.899300	0.000004	0.000000	-1.566638	-0.960663	-0.483909	0.000000	0.000000	0.000000
